<svg width="256" height="256" viewBox="0 0 256 256" xmlns="http://www.w3.org/2000/svg">
  <defs>
    <radialGradient id="bg-E53935_splatter" cx="50%" cy="50%" r="50%">
      <stop offset="0%" stop-color="#f55b58"/><stop offset="40%" stop-color="#E53935"/>
      <stop offset="78%" stop-color="#a52926"/><stop offset="100%" stop-color="#771e1c"/>
    </radialGradient>
    <clipPath id="cl-E53935_splatter"><circle cx="128" cy="128" r="128"/></clipPath>
  </defs>
  <circle cx="128" cy="128" r="128" fill="url(#bg-E53935_splatter)" fill-opacity="1"/>
  <g clip-path="url(#cl-E53935_splatter)"><polygon points="64 55.85454545454546 75.63636363636364 37.236363636363635 93.0909090909091 52.363636363636374 87.27272727272728 69.81818181818181" fill="#1A1A1A" fill-opacity="1"/><polygon points="174.54545454545456 46.54545454545455 192 58.18181818181819 183.85454545454544 79.12727272727273 168.72727272727272 69.81818181818181" fill="#1A1A1A" fill-opacity="0.7"/><polygon points="203.63636363636363 151.27272727272728 221.0909090909091 139.63636363636363 226.9090909090909 162.9090909090909 209.45454545454544 172.21818181818182" fill="#1A1A1A" fill-opacity="0.7"/><polygon points="40.727272727272734 168.72727272727272 58.18181818181819 157.0909090909091 64 180.36363636363637 46.54545454545455 188.5090909090909" fill="#1A1A1A" fill-opacity="1"/><polygon points="151.27272727272728 203.63636363636363 168.72727272727272 192 174.54545454545456 211.78181818181818 157.0909090909091 221.0909090909091" fill="#1A1A1A" fill-opacity="0.7"/><polygon points="93.0909090909091 215.27272727272725 110.54545454545455 207.12727272727273 116.36363636363636 223.4181818181818 95.41818181818182 230.39999999999998" fill="#1A1A1A" fill-opacity="0.7"/><polygon points="192 98.9090909090909 207.12727272727273 87.27272727272728 211.78181818181818 110.54545454545455 197.8181818181818 118.69090909090909" fill="#1A1A1A" fill-opacity="1"/><polygon points="52.363636363636374 116.36363636363636 69.81818181818181 104.72727272727272 75.63636363636364 122.18181818181819 60.509090909090915 133.8181818181818" fill="#1A1A1A" fill-opacity="0.7"/><circle cx="183.85454545454544" cy="69.81818181818181" r="4.072727272727272" fill="#1A1A1A" fill-opacity="0.8"/><circle cx="81.45454545454545" cy="81.45454545454545" r="2.327272727272727" fill="#1A1A1A" fill-opacity="0.8"/><circle cx="209.45454545454544" cy="75.63636363636364" r="2.327272727272727" fill="#1A1A1A" fill-opacity="0.8"/><circle cx="58.18181818181819" cy="192" r="2.327272727272727" fill="#1A1A1A" fill-opacity="0.8"/><circle cx="162.9090909090909" cy="64" r="2.327272727272727" fill="#1A1A1A" fill-opacity="0.8"/><circle cx="98.9090909090909" cy="209.45454545454544" r="2.327272727272727" fill="#1A1A1A" fill-opacity="0.8"/><circle cx="221.0909090909091" cy="174.54545454545456" r="4.072727272727272" fill="#1A1A1A" fill-opacity="0.8"/><circle cx="34.90909090909091" cy="93.0909090909091" r="2.327272727272727" fill="#1A1A1A" fill-opacity="0.8"/><circle cx="192" cy="197.8181818181818" r="2.327272727272727" fill="#1A1A1A" fill-opacity="0.8"/><circle cx="75.63636363636364" cy="40.727272727272734" r="2.327272727272727" fill="#1A1A1A" fill-opacity="0.8"/><circle cx="145.45454545454544" cy="223.4181818181818" r="2.327272727272727" fill="#1A1A1A" fill-opacity="0.8"/><circle cx="46.54545454545455" cy="139.63636363636363" r="4.072727272727272" fill="#1A1A1A" fill-opacity="0.8"/></g>
  <g opacity="0.22" clip-path="url(#cl-E53935_splatter)"><circle cx="128" cy="128" r="51.199999999999996" fill="none" stroke="#5c1715" stroke-width="0.45"/><circle cx="128" cy="128" r="53.992727272727265" fill="none" stroke="#5c1715" stroke-width="0.45"/><circle cx="128" cy="128" r="56.78545454545454" fill="none" stroke="#5c1715" stroke-width="0.45"/><circle cx="128" cy="128" r="59.57818181818181" fill="none" stroke="#5c1715" stroke-width="0.45"/><circle cx="128" cy="128" r="62.37090909090909" fill="none" stroke="#5c1715" stroke-width="0.45"/><circle cx="128" cy="128" r="65.16363636363636" fill="none" stroke="#5c1715" stroke-width="0.45"/><circle cx="128" cy="128" r="67.95636363636363" fill="none" stroke="#5c1715" stroke-width="0.45"/><circle cx="128" cy="128" r="70.74909090909091" fill="none" stroke="#5c1715" stroke-width="0.45"/><circle cx="128" cy="128" r="73.54181818181817" fill="none" stroke="#5c1715" stroke-width="0.45"/><circle cx="128" cy="128" r="76.33454545454545" fill="none" stroke="#5c1715" stroke-width="0.45"/><circle cx="128" cy="128" r="79.12727272727273" fill="none" stroke="#5c1715" stroke-width="0.45"/><circle cx="128" cy="128" r="81.91999999999999" fill="none" stroke="#5c1715" stroke-width="0.45"/><circle cx="128" cy="128" r="84.71272727272726" fill="none" stroke="#5c1715" stroke-width="0.45"/><circle cx="128" cy="128" r="87.50545454545454" fill="none" stroke="#5c1715" stroke-width="0.45"/><circle cx="128" cy="128" r="90.29818181818182" fill="none" stroke="#5c1715" stroke-width="0.45"/><circle cx="128" cy="128" r="93.0909090909091" fill="none" stroke="#5c1715" stroke-width="0.45"/><circle cx="128" cy="128" r="95.88363636363636" fill="none" stroke="#5c1715" stroke-width="0.45"/><circle cx="128" cy="128" r="98.67636363636363" fill="none" stroke="#5c1715" stroke-width="0.45"/><circle cx="128" cy="128" r="101.4690909090909" fill="none" stroke="#5c1715" stroke-width="0.45"/><circle cx="128" cy="128" r="104.26181818181817" fill="none" stroke="#5c1715" stroke-width="0.45"/><circle cx="128" cy="128" r="107.05454545454545" fill="none" stroke="#5c1715" stroke-width="0.45"/><circle cx="128" cy="128" r="109.84727272727272" fill="none" stroke="#5c1715" stroke-width="0.45"/><circle cx="128" cy="128" r="112.63999999999999" fill="none" stroke="#5c1715" stroke-width="0.45"/><circle cx="128" cy="128" r="115.43272727272728" fill="none" stroke="#5c1715" stroke-width="0.45"/><circle cx="128" cy="128" r="118.22545454545454" fill="none" stroke="#5c1715" stroke-width="0.45"/><circle cx="128" cy="128" r="121.0181818181818" fill="none" stroke="#5c1715" stroke-width="0.45"/></g>
  <circle cx="128" cy="128" r="127" fill="none" stroke="rgba(0,0,0,0.30)" stroke-width="3.4909090909090907"/>
  <circle cx="128" cy="128" r="123.92727272727272" fill="none" stroke="rgba(0,0,0,0.12)" stroke-width="2.327272727272727"/>
  <circle cx="128" cy="128" r="44.21818181818182" fill="#1C1D3A"/>
  <text x="128" y="114.03636363636363" text-anchor="middle" dominant-baseline="middle" font-size="9.309090909090909" fill="#B8BCDB" font-family="'Rubik Mono One', monospace" letter-spacing="1.1636363636363636">Вертушка</text>
  <circle cx="128" cy="128" r="5.818181818181818" fill="#000"/>
  <text x="128" y="141.96363636363637" text-anchor="middle" dominant-baseline="middle" font-size="5.818181818181818" fill="#5C6080" font-family="Inter, sans-serif" letter-spacing="1.7454545454545454">33⅓ RPM</text>
</svg>